<svg width="170" height="23" viewBox="0 0 170 23" fill="none" xmlns="http://www.w3.org/2000/svg">
<path d="M167.463 16.4358C167.463 15.7375 168.031 15.1715 168.731 15.1715C169.432 15.1715 170 15.7375 170 16.4358C170 17.134 169.432 17.7001 168.731 17.7001C168.031 17.7001 167.463 17.134 167.463 16.4358Z" fill="#D4FF33"/>
<path d="M153.619 12.3901C153.619 9.59707 155.891 7.33289 158.694 7.33289C161.496 7.33289 163.768 9.59707 163.768 12.3901C163.768 15.1831 161.496 17.4472 158.694 17.4472C155.891 17.4472 153.619 15.1831 153.619 12.3901Z" fill="#D4FF33"/>
<path d="M5.66328 17.7507C4.81075 17.7507 4.0394 17.6394 3.34925 17.4169C2.6591 17.1741 2.0603 16.8303 1.55284 16.3852C1.06567 15.92 0.68 15.3434 0.395821 14.6557C0.13194 13.9679 0 13.1689 0 12.2586H2.92298C2.92298 12.7238 2.99403 13.179 3.13612 13.624C3.29851 14.0488 3.57254 14.4028 3.95821 14.686C4.34388 14.949 4.88179 15.0805 5.57194 15.0805C6.46507 15.0805 7.11463 14.8276 7.5206 14.3219C7.94687 13.8162 8.16 12.8857 8.16 11.5303V0.910291H11.2657V11.0449C11.2657 12.0765 11.1845 13.007 11.0221 13.8364C10.8597 14.6658 10.5755 15.3738 10.1696 15.9604C9.76358 16.5471 9.19522 16.9921 8.46448 17.2955C7.75403 17.5989 6.8203 17.7507 5.66328 17.7507ZM4.68896 2.76121V0.364117H11.2657V2.76121H4.68896Z" fill="#EDEDED"/>
<path d="M20.1481 17.7507C18.7678 17.7507 17.6006 17.4776 16.6466 16.9314C15.7129 16.3852 15.0126 15.6368 14.5457 14.686C14.0788 13.715 13.8454 12.6126 13.8454 11.3786C13.8454 10.1245 14.0788 9.02199 14.5457 8.07124C15.0126 7.10026 15.7129 6.34169 16.6466 5.79552C17.6006 5.24934 18.7779 4.97625 20.1785 4.97625C22.2287 4.97625 23.7815 5.56289 24.837 6.73615C25.9129 7.90941 26.4508 9.4569 26.4508 11.3786C26.4508 12.5721 26.2275 13.6544 25.7809 14.6253C25.3344 15.5963 24.6442 16.365 23.7105 16.9314C22.7768 17.4776 21.5893 17.7507 20.1481 17.7507ZM20.1481 15.1412C21.0615 15.1412 21.7517 14.949 22.2185 14.5646C22.7057 14.1803 23.0305 13.6948 23.1929 13.1082C23.3553 12.5013 23.4365 11.8945 23.4365 11.2876C23.4365 10.6403 23.3553 10.0233 23.1929 9.43668C23.0305 8.85004 22.7057 8.36456 22.2185 7.98021C21.7517 7.57564 21.0615 7.37335 20.1481 7.37335C19.255 7.37335 18.5648 7.57564 18.0776 7.98021C17.6108 8.36456 17.286 8.85004 17.1033 9.43668C16.9409 10.0233 16.8597 10.6403 16.8597 11.2876C16.8597 11.8945 16.9409 12.5013 17.1033 13.1082C17.286 13.6948 17.6108 14.1803 18.0776 14.5646C18.5648 14.949 19.255 15.1412 20.1481 15.1412Z" fill="#EDEDED"/>
<path d="M28.7855 17.4472V4.97625H31.678L31.9216 8.61741L31.8912 11.2876V17.4472H28.7855ZM31.8912 12.0765L31.7998 9.3153C31.7998 8.8905 31.881 8.43536 32.0434 7.94987C32.2058 7.44415 32.4697 6.96878 32.8351 6.52375C33.2207 6.07872 33.718 5.7146 34.327 5.4314C34.936 5.12797 35.687 4.97625 36.5801 4.97625H37.0368V8.43536H36.5801C35.7073 8.43536 34.9664 8.50616 34.3574 8.64776C33.7485 8.76913 33.2613 8.97142 32.896 9.25462C32.5509 9.53782 32.2971 9.91205 32.1348 10.3773C31.9724 10.8426 31.8912 11.409 31.8912 12.0765Z" fill="#EDEDED"/>
<path d="M44.1604 17.7507C42.9222 17.7507 41.9174 17.4877 41.1461 16.9617C40.3951 16.4358 39.847 15.6974 39.5019 14.7467C39.1569 13.796 38.9843 12.6935 38.9843 11.4393C38.9843 10.1244 39.1569 8.99165 39.5019 8.0409C39.8673 7.06992 40.4255 6.32146 41.1766 5.79552C41.9479 5.24934 42.9425 4.97625 44.1604 4.97625C44.9521 4.97625 45.6118 5.10774 46.1395 5.37071C46.6876 5.61346 47.1139 5.90677 47.4183 6.25066C47.7431 6.59455 47.9766 6.90809 48.1186 7.19129C48.2607 7.4745 48.3419 7.64644 48.3622 7.70712H48.4231V0.364117H51.6201V17.4472H48.9407L48.4231 15.2322H48.3622C48.3419 15.2726 48.2506 15.4244 48.0882 15.6873C47.9461 15.9503 47.7025 16.2436 47.3574 16.5673C47.0327 16.8909 46.6064 17.1741 46.0786 17.4169C45.5509 17.6394 44.9115 17.7507 44.1604 17.7507ZM45.1652 15.1412C45.9366 15.1412 46.5557 14.9793 47.0225 14.6557C47.5097 14.332 47.8548 13.8971 48.0577 13.3509C48.281 12.7845 48.3927 12.1372 48.3927 11.409C48.3927 10.701 48.2912 10.0739 48.0882 9.52771C47.8852 8.9613 47.5503 8.52639 47.0834 8.22296C46.6369 7.8993 46.0279 7.73747 45.2566 7.73747C44.4243 7.73747 43.7646 7.90941 43.2774 8.2533C42.8106 8.59719 42.4858 9.05233 42.3031 9.61873C42.1204 10.1851 42.0291 10.7819 42.0291 11.409C42.0291 12.0361 42.1103 12.6429 42.2727 13.2296C42.4554 13.796 42.77 14.2612 43.2166 14.6253C43.6834 14.9692 44.333 15.1412 45.1652 15.1412Z" fill="#EDEDED"/>
<path d="M54.57 17.4472V4.97625H57.6757V17.4472H54.57ZM56.1228 3.36807C55.453 3.36807 54.9963 3.19613 54.7527 2.85224C54.5294 2.50836 54.4178 2.1139 54.4178 1.66887C54.4178 1.22383 54.5294 0.83949 54.7527 0.515832C54.9963 0.171944 55.453 0 56.1228 0C56.813 0 57.2596 0.171944 57.4625 0.515832C57.6858 0.83949 57.7975 1.22383 57.7975 1.66887C57.7975 2.1139 57.6858 2.50836 57.4625 2.85224C57.2596 3.19613 56.813 3.36807 56.1228 3.36807Z" fill="#EDEDED"/>
<path d="M67.3883 17.4472V0.364117H79.6283V3.0343H70.4635V7.52507H77.4969V10.0739H70.4635V14.9591H79.9327V17.4472H67.3883Z" fill="#EDEDED"/>
<path d="M81.0282 17.4472L85.5953 11.0145L81.2717 4.97625H84.6819L87.544 9.22427L90.4061 4.97625H93.8467L89.5231 11.0145L94.1207 17.4472H90.7105L87.544 12.8654L84.4383 17.4472H81.0282Z" fill="#EDEDED"/>
<path d="M103.507 17.7507C102.736 17.7507 102.087 17.6394 101.559 17.4169C101.051 17.1741 100.635 16.8909 100.31 16.5673C100.006 16.2436 99.7725 15.9503 99.6101 15.6873C99.468 15.4244 99.3868 15.2726 99.3665 15.2322H99.3056V23H96.1086V4.97625H98.8184L99.3361 7.70712H99.397C99.4173 7.64644 99.4883 7.4745 99.6101 7.19129C99.7319 6.90809 99.945 6.59455 100.249 6.25066C100.554 5.90677 100.97 5.61346 101.498 5.37071C102.026 5.10774 102.685 4.97625 103.477 4.97625C104.735 4.97625 105.74 5.24934 106.491 5.79552C107.263 6.34169 107.821 7.10026 108.166 8.07124C108.531 9.04222 108.714 10.1649 108.714 11.4393C108.714 12.7339 108.531 13.8566 108.166 14.8074C107.801 15.7379 107.232 16.4661 106.461 16.9921C105.71 17.4978 104.725 17.7507 103.507 17.7507ZM102.564 15.1412C103.416 15.1412 104.066 14.9692 104.512 14.6253C104.979 14.2612 105.294 13.796 105.456 13.2296C105.639 12.6429 105.73 12.0361 105.73 11.409C105.73 10.7819 105.639 10.1851 105.456 9.61873C105.273 9.05233 104.938 8.59719 104.451 8.2533C103.984 7.90941 103.335 7.73747 102.503 7.73747C101.752 7.73747 101.143 7.8993 100.676 8.22296C100.209 8.52639 99.8638 8.9613 99.6405 9.52771C99.4375 10.0739 99.3361 10.701 99.3361 11.409C99.3361 12.1372 99.4477 12.7845 99.671 13.3509C99.8943 13.8971 100.239 14.332 100.706 14.6557C101.193 14.9793 101.812 15.1412 102.564 15.1412Z" fill="#EDEDED"/>
<path d="M116.606 17.7507C115.225 17.7507 114.058 17.4776 113.104 16.9314C112.17 16.3852 111.47 15.6368 111.003 14.686C110.536 13.715 110.303 12.6126 110.303 11.3786C110.303 10.1245 110.536 9.02199 111.003 8.07124C111.47 7.10026 112.17 6.34169 113.104 5.79552C114.058 5.24934 115.236 4.97625 116.636 4.97625C118.686 4.97625 120.239 5.56289 121.295 6.73615C122.37 7.90941 122.908 9.4569 122.908 11.3786C122.908 12.5721 122.685 13.6544 122.238 14.6253C121.792 15.5963 121.102 16.365 120.168 16.9314C119.234 17.4776 118.047 17.7507 116.606 17.7507ZM116.606 15.1412C117.519 15.1412 118.209 14.949 118.676 14.5646C119.163 14.1803 119.488 13.6948 119.65 13.1082C119.813 12.5013 119.894 11.8945 119.894 11.2876C119.894 10.6403 119.813 10.0233 119.65 9.43668C119.488 8.85004 119.163 8.36456 118.676 7.98021C118.209 7.57564 117.519 7.37335 116.606 7.37335C115.713 7.37335 115.022 7.57564 114.535 7.98021C114.068 8.36456 113.744 8.85004 113.561 9.43668C113.398 10.0233 113.317 10.6403 113.317 11.2876C113.317 11.8945 113.398 12.5013 113.561 13.1082C113.744 13.6948 114.068 14.1803 114.535 14.5646C115.022 14.949 115.713 15.1412 116.606 15.1412ZM117.519 3.64116H116.118V3.21636L117.489 0.182059H120.107V0.758576L117.519 3.64116Z" fill="#EDEDED"/>
<path d="M130.45 17.7507C130.023 17.7507 129.556 17.69 129.049 17.5686C128.542 17.4675 128.034 17.3056 127.527 17.0831C127.019 16.8404 126.552 16.5369 126.126 16.1728C125.72 15.8087 125.395 15.3839 125.152 14.8984C124.908 14.4129 124.786 13.8465 124.786 13.1992H127.648C127.648 13.2194 127.659 13.3509 127.679 13.5937C127.719 13.8364 127.821 14.1095 127.983 14.4129C128.146 14.6961 128.41 14.949 128.775 15.1715C129.14 15.394 129.668 15.5053 130.358 15.5053C130.906 15.5053 131.353 15.4345 131.698 15.2929C132.043 15.1513 132.297 14.9793 132.459 14.777C132.642 14.5545 132.733 14.3118 132.733 14.0488C132.733 13.6038 132.54 13.2599 132.155 13.0171C131.789 12.7542 131.312 12.5418 130.724 12.3799C130.135 12.2181 129.506 12.0563 128.836 11.8945C128.186 11.7124 127.567 11.4798 126.979 11.1966C126.41 10.9134 125.943 10.529 125.578 10.0435C125.213 9.53782 125.03 8.8905 125.03 8.10158C125.03 6.92832 125.497 6.04837 126.431 5.46174C127.364 4.87511 128.552 4.58179 129.993 4.58179C130.764 4.58179 131.485 4.67282 132.155 4.85488C132.845 5.01671 133.454 5.2898 133.982 5.67414C134.509 6.03826 134.925 6.51363 135.23 7.10026C135.555 7.66667 135.717 8.36456 135.717 9.19393H132.855C132.875 8.72867 132.794 8.35444 132.611 8.07124C132.449 7.76781 132.226 7.53518 131.942 7.37335C131.657 7.21152 131.353 7.10026 131.028 7.03958C130.703 6.97889 130.389 6.94855 130.084 6.94855C129.354 6.94855 128.795 7.08004 128.41 7.34301C128.044 7.58575 127.862 7.90941 127.862 8.31398C127.862 8.77924 128.044 9.14336 128.41 9.40633C128.795 9.64908 129.282 9.85136 129.871 10.0132C130.48 10.175 131.119 10.347 131.789 10.529C132.459 10.6909 133.088 10.9134 133.677 11.1966C134.266 11.4798 134.743 11.8641 135.108 12.3496C135.494 12.8149 135.687 13.442 135.687 14.2309C135.687 15.0198 135.463 15.6772 135.017 16.2032C134.591 16.7089 133.982 17.0932 133.19 17.3562C132.419 17.6192 131.505 17.7507 130.45 17.7507Z" fill="#EDEDED"/>
<path d="M138.093 17.4472V4.97625H141.199V17.4472H138.093ZM139.646 3.36807C138.976 3.36807 138.519 3.19613 138.276 2.85224C138.053 2.50836 137.941 2.1139 137.941 1.66887C137.941 1.22383 138.053 0.83949 138.276 0.515832C138.519 0.171944 138.976 0 139.646 0C140.336 0 140.783 0.171944 140.986 0.515832C141.209 0.83949 141.321 1.22383 141.321 1.66887C141.321 2.1139 141.209 2.50836 140.986 2.85224C140.783 3.19613 140.336 3.36807 139.646 3.36807Z" fill="#EDEDED"/>
<path d="M148.053 17.4472C147.058 17.4472 146.307 17.2045 145.8 16.719C145.312 16.2335 145.069 15.4446 145.069 14.3522V6.82718H147.961V15.0198H150.884V17.4472H148.053ZM143.181 7.16095V4.97625C143.628 4.97625 143.993 4.94591 144.277 4.88522C144.561 4.82454 144.785 4.69305 144.947 4.49077C145.13 4.28848 145.262 3.97493 145.343 3.55013C145.424 3.12533 145.465 2.5387 145.465 1.79024H147.961V4.97625H150.823V7.16095H143.181Z" fill="#EDEDED"/>
<path d="M158.917 17.7507C157.537 17.7507 156.37 17.4776 155.416 16.9314C154.482 16.3852 153.782 15.6368 153.315 14.686C152.848 13.715 152.615 12.6126 152.615 11.3786C152.615 10.1245 152.848 9.02199 153.315 8.07124C153.782 7.10026 154.482 6.34169 155.416 5.79552C156.37 5.24934 157.547 4.97625 158.948 4.97625C160.998 4.97625 162.551 5.56289 163.606 6.73615C164.682 7.90941 165.22 9.4569 165.22 11.3786C165.22 12.5721 164.997 13.6544 164.55 14.6253C164.104 15.5963 163.413 16.365 162.48 16.9314C161.546 17.4776 160.359 17.7507 158.917 17.7507ZM158.917 15.1412C159.831 15.1412 160.521 14.949 160.988 14.5646C161.475 14.1803 161.8 13.6948 161.962 13.1082C162.125 12.5013 162.206 11.8945 162.206 11.2876C162.206 10.6403 162.125 10.0233 161.962 9.43668C161.8 8.85004 161.475 8.36456 160.988 7.98021C160.521 7.57564 159.831 7.37335 158.917 7.37335C158.024 7.37335 157.334 7.57564 156.847 7.98021C156.38 8.36456 156.055 8.85004 155.873 9.43668C155.71 10.0233 155.629 10.6403 155.629 11.2876C155.629 11.8945 155.71 12.5013 155.873 13.1082C156.055 13.6948 156.38 14.1803 156.847 14.5646C157.334 14.949 158.024 15.1412 158.917 15.1412Z" fill="#D4FF33"/>
</svg>
